<svg width="135" height="271" xmlns="http://www.w3.org/2000/svg"><g transform="translate(-5 -5)" fill="#000" fill-rule="evenodd"><circle transform="rotate(-120 124.49 50.49)" cx="124.49" cy="50.49" r="15"/><circle transform="rotate(-120 72.49 140.49)" cx="72.49" cy="140.49" r="15"/><circle transform="rotate(-120 72.49 20.49)" cx="72.49" cy="20.49" r="15"/><circle transform="rotate(-120 20.49 50.49)" cx="20.49" cy="50.49" r="15"/><circle transform="rotate(-120 124.49 110.49)" cx="124.49" cy="110.49" r="15"/><circle transform="rotate(-120 20.49 110.49)" cx="20.49" cy="110.49" r="15"/><circle transform="rotate(-120 20.49 170.49)" cx="20.49" cy="170.49" r="15"/><circle transform="rotate(-120 124.49 170.49)" cx="124.49" cy="170.49" r="15"/><circle transform="rotate(-120 72.49 200.49)" cx="72.49" cy="200.49" r="15"/><circle transform="rotate(-120 72.49 260.49)" cx="72.49" cy="260.49" r="15"/></g></svg>