<svg version="1" xmlns="http://www.w3.org/2000/svg" width="1445.333" height="1445.333" viewBox="0 0 1084.000000 1084.000000"><path d="M530.4 2.9c-.2.3-1.4.6-2.5.8-3.2.5-15.2 5.4-17 6.9-.8.8-1.9 1.4-2.2 1.4-1.8 0-11.9 10-15.5 15.3-8.3 12.1-10.7 20.2-10.7 36.2.1 20.4 9.4 37 27.5 48.9 14 9.2 33.1 11.7 50.3 6.6 11.1-3.3 25.3-14 31.6-23.8 3.3-5.2 7.6-15 8.6-19.8 1.4-6.5 1.4-19 0-25.8-4.4-21.2-21.7-39.9-42-45.2-8-2.2-26.4-3.1-28.1-1.5zM325.9 122.4c-.2.2-2.1.7-4.1 1-15.7 2.5-32.9 15.2-40.5 30-5.3 10.3-6.8 16.6-6.8 28.1 0 9.4.6 13.5 3.1 20.7 1.7 5.1 8.3 16.1 12.1 20.3 4.5 5 13.8 11.5 20.5 14.3 9.5 3.9 16.3 5.1 26.8 4.7 15.7-.7 27.2-5.8 39.1-17.5 4.2-4.1 8.4-9.1 9.3-11 .9-1.9 2-4.2 2.5-5 6-10.6 7.5-30.5 3.2-44-5.8-18.2-20.9-33.4-39.1-39.1-5.8-1.9-24.9-3.7-26.1-2.5zM737 123.4c-28.4 6.4-48.6 33-46.7 61.4.9 12.6 3.1 19.6 9.3 29.2 4.6 7.1 7 9.8 13.2 14.9 20.7 16.7 52 17 73.6.8 8.3-6.3 18.8-21.1 20.2-28.6.3-1.4.8-2.9 1.2-3.5 1-1.7 1.2-3.4 1.7-13.2 1.7-33.4-24.8-61.7-58.3-62.1-4.8-.1-11.2.4-14.2 1.1zM325.9 362.4c-.2.2-2 .7-4.1 1-9.4 1.5-22.6 8.5-30.2 16.2-7.5 7.5-14.3 20.1-16.4 30.2-1.3 6.9-.7 23.4 1.2 29.2 1.9 5.7 7.8 17.3 9.9 19.4.7.7 2.6 2.8 4.2 4.7 7.5 8.4 20.6 15.6 32.5 17.7 5.5 1 19.3.9 23.9-.2 19.6-4.7 36.2-19 43.1-37.3 5.7-15.1 4.8-33.2-2.4-47.8-1.9-3.9-4.5-8.2-5.8-9.7-1.3-1.4-3-3.5-3.9-4.5-5.9-6.8-17.1-13.8-26.9-16.8-5-1.5-24-3.1-25.1-2.1zM741.9 362.4c-.2.2-2 .7-4.1 1-5.8.9-14.1 4.3-20.5 8.5-11.6 7.5-19.7 18.1-24.4 32.4-2.4 6.9-2.6 9.1-2.4 19 .2 9 .7 12.5 2.7 17.9 4.4 11.8 9.8 19.4 20.3 28.3 3.4 2.9 15.7 9.2 19.5 10 9.2 2 13.3 2.4 19.5 2.1 10.6-.5 14.2-1.4 23.2-5.7 9.4-4.5 23-16.5 25.3-22.5.8-1.8 1.7-3.4 2.2-3.4.4 0 .8-.9.8-1.9 0-1.1.4-2.2.9-2.5.7-.5 1.7-3.4 3.8-11.6.4-1.4.6-7.5.6-13.5-.1-9-.6-12.2-2.6-17.7-6.6-18.4-20.8-32.3-38.7-37.9-5.8-1.9-24.9-3.7-26.1-2.5zM530.1 483.3c-.6.6-1.1.8-1.1.4 0-1-14.1 4.3-17.2 6.4-1.4 1.1-2.9 1.9-3.2 1.9-1.7 0-11.9 10.1-15.4 15.3-3.6 5.1-8.5 14.7-7.6 14.7.4 0 .2.6-.4 1.2-1.7 2.1-2.5 7.8-2.6 19.3 0 9.2.3 12.1 2.4 18 2.3 6.6 7.6 16.2 10.6 19.2.7.8 1.9 2.2 2.6 3.2 2 2.7 11.7 10 16.7 12.6 8 3.9 16.1 5.8 26.6 6.1 5.5.1 10.5-.1 11-.4.6-.4 1.9-.8 3-.9 6.2-1 18.4-6.8 23.9-11.4 3.5-2.9 10-10 12.2-13.3 2.7-4 6.8-12.8 7.9-17.1.5-1.7 1-3.7 1.2-4.5 1-3.4 1-20.4.1-23.7-.5-2-1.1-4.3-1.3-5.2-4.5-18.9-23.1-36.4-44.5-41.7-4.7-1.2-23.8-1.2-24.9-.1zM320.7 603.4c-5.9 1.4-18.3 7-22.5 10.3-24.4 19.1-31.1 51.6-16.1 78.2 1.7 3 3.7 6.1 4.4 6.8.8.7 2.2 2.3 3.2 3.5 8.1 10.1 24.5 18.2 39.3 19.3 29.7 2.4 57.3-17.9 63.4-46.6 1.4-6.2 1.4-21 .2-25.7-.3-1.2-.8-3.2-1.1-4.5-.7-3.5-7.2-15.9-10-19.2-9.3-11-17.3-16.5-29.7-20.6-9.1-2.9-21.8-3.5-31.1-1.5zM734.8 604c-6.1 1.6-17.8 7.2-21.4 10.3-19.1 16.2-26.8 37.8-21.8 60.5 1.5 6.7 5.3 16.5 6.6 17 .4.2.8 1 .8 1.8s.5 1.4 1 1.4c.6 0 1 .6 1 1.2 0 1.1 10.9 12.1 15.2 15.4 2.1 1.6 7.7 4.5 8.1 4.2.2-.2 1 .2 1.8.8 4.6 3.7 26.3 6.3 35.4 4.2 23.8-5.4 42.5-23.8 47-46.3 3.4-16.9-.6-34.9-10.7-48.3-11.7-15.4-27-23.3-46.3-23.8-7.1-.2-11.9.3-16.7 1.6zM528 723.6c-5.8 1.5-19 7.6-22.3 10.3-7.8 6.4-13.1 13-17.1 21.2-6.1 12.4-7.9 25.7-5.2 38.9 1.6 7.8 6.9 19.8 10.7 24 1.1 1.4 2.9 3.4 3.8 4.5 2.6 3.3 12 10.4 17 13 10.7 5.3 27.9 7.7 38.3 5.3 2.4-.5 5.2-1.1 6.3-1.4 1.1-.2 5.3-2 9.4-4 14.9-7.4 28.1-24 31.7-40.1.3-1.6.8-6.7 1-11.5 1.2-28.4-18.2-53.6-46.6-60.4-5.3-1.3-21.6-1.2-27 .2zM528 963.6c-6.3 1.7-19.3 7.8-22.8 10.8-5.4 4.7-9.3 8.8-12 12.9-3.6 5.1-8.5 14.7-7.6 14.7.4 0 .2.6-.4 1.2-2.8 3.4-3.8 21-1.8 30.8 2.7 13.3 8.7 23.2 20.9 34.5 3.5 3.3 13.4 8.6 19.7 10.6 8.6 2.7 22.4 3.3 30.8 1.4 26.7-6.2 45.4-28.4 46.8-55.3 1.1-22.2-8.9-41.6-27.8-53.9-3.6-2.3-7.3-4.3-8-4.3-.8 0-1.8-.4-2.3-.8-4-3.5-25.8-5.1-35.5-2.6z"/></svg>