<svg width="28" height="28" viewBox="0 0 28 28" xmlns="http://www.w3.org/2000/svg" xmlns:xlink="http://www.w3.org/1999/xlink">
  <defs>
    <path d="M14.763 24h-.103c-1.2 0-2.166-.1-3.04-.31-4.857-1.177-8.12-4.87-8.12-9.19 0-2.397.464-4.086 1.46-5.315C5.805 8.16 6.85 7.3 8.067 6.623c.2-.112.452-.072.608.096.157.166.18.42.055.612-.322.495-.586 1.054-.792 1.668h9.535c-.224-2.01-1.8-4-4.973-4-3.565 0-8.348 1.516-11.08 5.77-.127.198-.374.278-.595.2-.22-.083-.354-.308-.32-.54C1.353 4.483 6.295 0 12 0c4.894 0 9.256 3.244 10.854 8.073.15.438.272.885.365 1.324.187.9.28 1.75.28 2.604v1.5c0 .277-.225.5-.5.5H8.513c.188 3.364 2.314 5 6.486 5 .998 0 1.622-.024 2.086-.085 1.376-.16 2.638-.567 3.655-1.182.156-.093.347-.096.506-.007.157.09.254.255.254.436V22c0 .175-.092.338-.242.428-1.266.762-2.89 1.25-4.967 1.494-.447.053-.933.078-1.527.078zM7.048 8.514c-.484.395-.923.83-1.313 1.304C4.895 10.856 4.5 12.345 4.5 14.5c0 3.85 2.955 7.152 7.354 8.218.796.192 1.688.282 2.806.282h.103c.555 0 1.003-.022 1.41-.07 1.8-.212 3.22-.612 4.327-1.22v-2.716c-.98.463-2.103.775-3.292.913-.502.065-1.164.093-2.208.093-4.977 0-7.5-2.187-7.5-6.5 0-.276.224-.5.5-.5h14.5v-1c0-.783-.085-1.567-.26-2.397-.083-.4-.196-.807-.334-1.21C20.442 3.968 16.46 1 12 1 7.615 1 3.604 4.078 2.058 8.328 5.788 4.346 10.87 4 12.5 4c3.94 0 6 2.767 6 5.5 0 .276-.224.5-.5.5H7.27c-.154 0-.3-.07-.395-.193-.095-.122-.128-.28-.09-.43.076-.298.164-.585.263-.863z" id="b"/>
    <filter x="-26.1%" y="-25%" width="152.2%" height="150%" filterUnits="objectBoundingBox" id="a">
      <feOffset in="SourceAlpha" result="shadowOffsetOuter1"/>
      <feGaussianBlur stdDeviation="2" in="shadowOffsetOuter1" result="shadowBlurOuter1"/>
      <feColorMatrix values="0 0 0 0 0.949019608 0 0 0 0 0.721568627 0 0 0 0 0.807843137 0 0 0 0.75 0" in="shadowBlurOuter1"/>
    </filter>
  </defs>
  <g transform="translate(2 2)" fill-rule="nonzero" fill="none">
    <use fill="#000" filter="url(#a)" xlink:href="#b"/>
    <use fill="#ED6498" fill-rule="evenodd" xlink:href="#b"/>
  </g>
</svg>