<svg width="28" height="28" viewBox="0 0 28 28" xmlns="http://www.w3.org/2000/svg" xmlns:xlink="http://www.w3.org/1999/xlink">
  <defs>
    <path d="M12 23.5c-6.617 0-12-5.383-12-12 0-1.945.476-3.872 1.377-5.583-.5-1.06-.516-2.985.77-4.27.143-.144.357-.188.544-.11.188.078.31.26.31.463 0 .4.273 1.228.622 1.886.197.368.335.533.403.6.493-.075 1.605-.11 2.263-.033C6.805 3.78 7.878 2.5 9.5 2.5c.202 0 .385.122.462.31.078.185.035.4-.108.543-.826.826-1.58 2-1.35 2.554.155.377.883.593 1.996.593h1c.22 0 .415.144.48.355.063.21-.02.44-.202.56L9.1 9.2c.084.337.104.803-.247 1.153-.195.195-.512.195-.707 0 0 .035-.36.116-.71.403-.277.23-.436.5-.436.744 0 .807.954 2 3 2 1.16 0 1.44-.25 1.708-.49.256-.226.573-.51 1.292-.51 1.297 0 1.866.902 1.985 1.38.038.148.004.307-.09.428-.096.122-.24.192-.395.192-.678 0-1.328.417-2.017.86-.492.314-1.022.655-1.622.88.448.185.93.26 1.64.26 3.033 0 5.5-2.467 5.5-5.5 0-1.185-.374-2.316-1.082-3.272-.147-.2-.127-.477.05-.65.176-.178.452-.198.65-.05.792.59 1.43 1.347 1.88 2.204-.074-2.842-1.288-6.465-3.28-7.818-.203-.14-.275-.406-.17-.628.108-.223.364-.334.596-.264C20.2 1.588 24 4.902 24 11v1c0 6.45-5.27 11.5-12 11.5zM2.325 6.25C1.445 7.91 1 9.696 1 11.5c0 6.065 4.935 11 11 11 6.168 0 11-4.612 11-10.5v-1c0-4.298-2.057-7.07-4.477-8.55C19.817 4.452 20.5 7.26 20.5 9.5c0 .792-.1 1.582-.296 2.344-.062.236-.298.384-.524.374-.243-.02-.436-.21-.458-.453-.036-.398-.115-.788-.233-1.163.006.132.01.265.01.398 0 3.584-2.916 6.5-6.5 6.5-1.39 0-2.16-.256-3.297-1.098-.173-.128-.245-.354-.177-.56.067-.203.258-.342.474-.342.91 0 1.655-.478 2.443-.983.53-.34 1.073-.688 1.67-.876-.146-.08-.345-.14-.613-.14-.337 0-.42.075-.625.257-.44.392-.95.743-2.375.743-2.504 0-4-1.525-4-3 0-.91.757-1.63 1.507-1.94.22-.092.426-.143.615-.154-.018-.064-.04-.13-.066-.177-.117-.228-.045-.505.167-.646L9.88 7.48c-1.253-.093-2.01-.485-2.3-1.19-.29-.702-.002-1.512.416-2.202-.45.362-.79.81-1.007 1.095l-.094.123c-.144.187-.4.246-.612.145-.242-.062-1.76-.062-2.167.036-.61.14-1.08-.578-1.377-1.13-.172-.323-.344-.712-.48-1.102-.37.93-.193 1.94.106 2.388.127.19.108.44-.04.61z" id="b"/>
    <filter x="-25%" y="-26.1%" width="150%" height="152.2%" filterUnits="objectBoundingBox" id="a">
      <feOffset in="SourceAlpha" result="shadowOffsetOuter1"/>
      <feGaussianBlur stdDeviation="2" in="shadowOffsetOuter1" result="shadowBlurOuter1"/>
      <feColorMatrix values="0 0 0 0 0.929411765 0 0 0 0 0.392156863 0 0 0 0 0.596078431 0 0 0 0.75 0" in="shadowBlurOuter1"/>
    </filter>
  </defs>
  <g transform="translate(2 2)" fill-rule="nonzero" fill="none">
    <use fill="#000" filter="url(#a)" xlink:href="#b"/>
    <use fill="#ED6498" fill-rule="evenodd" xlink:href="#b"/>
  </g>
</svg>