<svg width="28" height="28" viewBox="0 0 28 28" xmlns="http://www.w3.org/2000/svg" xmlns:xlink="http://www.w3.org/1999/xlink">
  <defs>
    <path d="M12 24C5.383 24 0 18.617 0 12S5.383 0 12 0s12 5.383 12 12-5.383 12-12 12zm0-23C5.935 1 1 5.935 1 12s4.935 11 11 11 11-4.935 11-11S18.065 1 12 1z" id="b"/>
    <filter x="-25%" y="-25%" width="150%" height="150%" filterUnits="objectBoundingBox" id="a">
      <feOffset in="SourceAlpha" result="shadowOffsetOuter1"/>
      <feGaussianBlur stdDeviation="2" in="shadowOffsetOuter1" result="shadowBlurOuter1"/>
      <feColorMatrix values="0 0 0 0 0.949019608 0 0 0 0 0.721568627 0 0 0 0 0.807843137 0 0 0 0.75 0" in="shadowBlurOuter1"/>
    </filter>
    <path d="M12 22C6.486 22 2 17.514 2 12S6.486 2 12 2s10 4.486 10 10-4.486 10-10 10zm0-19c-4.963 0-9 4.038-9 9s4.037 9 9 9 9-4.038 9-9-4.037-9-9-9z" id="d"/>
    <filter x="-30%" y="-30%" width="160%" height="160%" filterUnits="objectBoundingBox" id="c">
      <feOffset in="SourceAlpha" result="shadowOffsetOuter1"/>
      <feGaussianBlur stdDeviation="2" in="shadowOffsetOuter1" result="shadowBlurOuter1"/>
      <feColorMatrix values="0 0 0 0 0.949019608 0 0 0 0 0.721568627 0 0 0 0 0.807843137 0 0 0 0.75 0" in="shadowBlurOuter1"/>
    </filter>
    <path d="M6.5 18c-.13 0-.257-.05-.354-.146-.17-.17-.195-.44-.058-.638l4.5-6.5c.034-.05.077-.092.127-.126l6.5-4.5c.198-.138.467-.112.638.058.17.17.195.44.058.638l-4.5 6.5c-.033.05-.076.092-.126.126l-6.5 4.5c-.086.06-.185.088-.284.088zm4.86-6.64l-2.884 4.163 4.164-2.883 2.883-4.164-4.164 2.883z" id="f"/>
    <filter x="-50%" y="-50%" width="200%" height="200%" filterUnits="objectBoundingBox" id="e">
      <feOffset in="SourceAlpha" result="shadowOffsetOuter1"/>
      <feGaussianBlur stdDeviation="2" in="shadowOffsetOuter1" result="shadowBlurOuter1"/>
      <feColorMatrix values="0 0 0 0 0.949019608 0 0 0 0 0.721568627 0 0 0 0 0.807843137 0 0 0 0.75 0" in="shadowBlurOuter1"/>
    </filter>
    <path d="M13 13.5c-.128 0-.256-.05-.354-.146l-2-2c-.195-.195-.195-.512 0-.707.195-.195.512-.195.707 0l2 2c.195.195.195.512 0 .707-.097.097-.225.146-.353.146z" id="h"/>
    <filter x="-200%" y="-200.1%" width="500.1%" height="500.1%" filterUnits="objectBoundingBox" id="g">
      <feOffset in="SourceAlpha" result="shadowOffsetOuter1"/>
      <feGaussianBlur stdDeviation="2" in="shadowOffsetOuter1" result="shadowBlurOuter1"/>
      <feColorMatrix values="0 0 0 0 0.949019608 0 0 0 0 0.721568627 0 0 0 0 0.807843137 0 0 0 0.75 0" in="shadowBlurOuter1"/>
    </filter>
  </defs>
  <g fill-rule="nonzero" fill="none">
    <g transform="translate(2 2)">
      <use fill="#000" filter="url(#a)" xlink:href="#b"/>
      <use fill="#ED6498" fill-rule="evenodd" xlink:href="#b"/>
    </g>
    <g transform="translate(2 2)">
      <use fill="#000" filter="url(#c)" xlink:href="#d"/>
      <use fill="#ED6498" fill-rule="evenodd" xlink:href="#d"/>
    </g>
    <g transform="translate(2 2)">
      <use fill="#000" filter="url(#e)" xlink:href="#f"/>
      <use fill="#ED6498" fill-rule="evenodd" xlink:href="#f"/>
    </g>
    <g transform="translate(2 2)">
      <use fill="#000" filter="url(#g)" xlink:href="#h"/>
      <use fill="#ED6498" fill-rule="evenodd" xlink:href="#h"/>
    </g>
  </g>
</svg>